<svg xmlns="http://www.w3.org/2000/svg" width="752pt" height="752pt" version="1.1" viewBox="0 0 752 752">
 <path d="m374.67 205.51c-2.3047 0.32031-4.4141 1.4805-5.918 3.2578l-80.508 94.715c-1.6289 1.9219-2.4297 4.4141-2.2188 6.9258 0.20703 2.5117 1.4023 4.8398 3.3281 6.4688 4.0039 3.3906 10 2.8945 13.395-1.1094l63.785-75.035v244.19c-0.039062 2.5352 0.94531 4.9766 2.7266 6.7852 1.7773 1.8047 4.207 2.8203 6.7422 2.8203s4.9648-1.0156 6.7461-2.8203c1.7812-1.8086 2.7617-4.25 2.7266-6.7852v-244.19l63.785 75.035c3.3945 4.0039 9.3906 4.5 13.395 1.1094 4.0039-3.3945 4.5-9.3906 1.1094-13.395l-80.508-94.715c-2.1094-2.4922-5.3516-3.7227-8.5859-3.2578zm0.29688 302.95c-4.8789 0.53516-8.5391 4.7109-8.4336 9.6172v18.945c-0.039062 2.5352 0.94531 4.9766 2.7266 6.7852 1.7773 1.8047 4.207 2.8203 6.7422 2.8203s4.9648-1.0156 6.7461-2.8203c1.7812-1.8086 2.7617-4.25 2.7266-6.7852v-18.945c0.058594-2.7266-1.0625-5.3477-3.0742-7.1875-2.0117-1.8438-4.7227-2.7305-7.4336-2.4297z"/>
</svg>